/* XPM */
static char *img[] = {
/* columns rows colors chars-per-pixel */
"40 40 73 1 ",
"  c #000001",
". c black",
"X c #010101",
"o c #010000",
"O c #008400",
"+ c #00C601",
"@ c #00C600",
"# c #018300",
"$ c #000100",
"% c #018402",
"& c #038201",
"* c #018201",
"= c #010002",
"- c #000002",
"; c #FFBD8C",
": c #FFFF43",
"> c #FEFF42",
", c #FEFE3E",
"< c #FFBC8F",
"1 c #000201",
"2 c #FFBE8E",
"3 c #FFFF42",
"4 c #FFBC8D",
"5 c #010100",
"6 c #FEBC8C",
"7 c #040001",
"8 c #FE9901",
"9 c #F1A408",
"0 c #F0A403",
"q c #EEA407",
"w c #FE9A00",
"e c #FFBD8B",
"r c #9C6232",
"t c #9C6433",
"y c #9D6333",
"u c #9C6230",
"i c #FDBD8D",
"p c #FDBE89",
"a c #020001",
"s c #010103",
"d c #FFBE8C",
"f c #9D6331",
"g c white",
"h c #FEFFFF",
"j c #FFBD8D",
"k c #FFBC8B",
"l c #030000",
"z c #FFFEFF",
"x c #3F45FF",
"c c #4243FF",
"v c #020100",
"b c #FDBE8B",
"n c #FFFDFF",
"m c #020085",
"M c #000085",
"N c #000082",
"B c #008300",
"V c #008301",
"C c #008501",
"Z c #018400",
"A c #4343FB",
"S c #4344FE",
"D c #00C702",
"F c #01C500",
"G c #4342FF",
"H c #4145FF",
"J c #028400",
"K c #008500",
"L c #040004",
"P c #FFFFFD",
"I c #FEFEFF",
"U c #9C6431",
"Y c #624132",
/* pixels */
"                                        ",
"                                        ",
"                ..XX......              ",
"                ..XX......              ",
"              ooOOOO++@@##$$            ",
"              ooOOOO++@@##$$            ",
"          oo$$%%&&%%..XX**XX==          ",
"          oo$$%%&&%%..XX**XX==          ",
"        --;;--OO::>>::,,....<<11        ",
"        --;;--OO::>>::,,....<<11        ",
"        ..22..33$$oo....::--44..        ",
"        ..22..33$$oo....::--44..        ",
"        556677889900qq99ww..ee..        ",
"        556677889900qq99ww..ee..        ",
"        $$rrtt........--$$yyuu..        ",
"        $$rrtt........--$$yyuu..        ",
"          ..eeiioo22ii5544ppaa..        ",
"          ..eeiioo22ii5544ppaa..        ",
"    ..$$..--ss..--eedd..44ffoo          ",
"    ..$$..--ss..--eedd..44ffoo          ",
"    ..gggg55gghh..eejjkktt$$uuoo        ",
"    ..gggg55gghh..eejjkktt$$uuoo        ",
"    llzzxxzzcczz..vv..11....rrbb$$      ",
"    llzzxxzzcczz..vv..11....rrbb$$      ",
"    --nnmmMMNNzz..BBVVCCZZ--..44==      ",
"    --nnmmMMNNzz..BBVVCCZZ--..44==      ",
"    --hhAASScchh$$@@DD@@FFOO11$$--      ",
"    --hhAASScchh$$@@DD@@FFOO11$$--      ",
"    --hhGGHHGGgg--JJKKLL$$$$oo          ",
"    --hhGGHHGGgg--JJKKLL$$$$oo          ",
"      ooPPIIPP$$..--$$UUuuYYXX==        ",
"      ooPPIIPP$$..--$$UUuuYYXX==        ",
"        ooss..$$......--..vv$$          ",
"        ooss..$$......--..vv$$          ",
"      ..--55..ll--..                    ",
"      ..--55..ll--..                    ",
"                                        ",
"                                        ",
"                                        ",
"                                        "
};
